<svg id="visual" viewBox="0 0 900 600" width="900" height="600" xmlns="http://www.w3.org/2000/svg" xmlns:xlink="http://www.w3.org/1999/xlink" version="1.1"><path d="M0 61L16.7 57C33.3 53 66.7 45 100 47C133.3 49 166.7 61 200 60C233.3 59 266.7 45 300 43C333.3 41 366.7 51 400 57C433.3 63 466.7 65 500 64C533.3 63 566.7 59 600 52C633.3 45 666.7 35 700 34C733.3 33 766.7 41 800 46C833.3 51 866.7 53 883.3 54L900 55L900 0L883.3 0C866.7 0 833.3 0 800 0C766.7 0 733.3 0 700 0C666.7 0 633.3 0 600 0C566.7 0 533.3 0 500 0C466.7 0 433.3 0 400 0C366.7 0 333.3 0 300 0C266.7 0 233.3 0 200 0C166.7 0 133.3 0 100 0C66.7 0 33.3 0 16.7 0L0 0Z" fill="#000022"></path><path d="M0 85L16.7 89C33.3 93 66.7 101 100 110C133.3 119 166.7 129 200 123C233.3 117 266.7 95 300 95C333.3 95 366.7 117 400 123C433.3 129 466.7 119 500 107C533.3 95 566.7 81 600 74C633.3 67 666.7 67 700 70C733.3 73 766.7 79 800 87C833.3 95 866.7 105 883.3 110L900 115L900 53L883.3 52C866.7 51 833.3 49 800 44C766.7 39 733.3 31 700 32C666.7 33 633.3 43 600 50C566.7 57 533.3 61 500 62C466.7 63 433.3 61 400 55C366.7 49 333.3 39 300 41C266.7 43 233.3 57 200 58C166.7 59 133.3 47 100 45C66.7 43 33.3 51 16.7 55L0 59Z" fill="#1c1e43"></path><path d="M0 151L16.7 149C33.3 147 66.7 143 100 150C133.3 157 166.7 175 200 173C233.3 171 266.7 149 300 152C333.3 155 366.7 183 400 199C433.3 215 466.7 219 500 208C533.3 197 566.7 171 600 171C633.3 171 666.7 197 700 213C733.3 229 766.7 235 800 236C833.3 237 866.7 233 883.3 231L900 229L900 113L883.3 108C866.7 103 833.3 93 800 85C766.7 77 733.3 71 700 68C666.7 65 633.3 65 600 72C566.7 79 533.3 93 500 105C466.7 117 433.3 127 400 121C366.7 115 333.3 93 300 93C266.7 93 233.3 115 200 121C166.7 127 133.3 117 100 108C66.7 99 33.3 91 16.7 87L0 83Z" fill="#3b3666"></path><path d="M0 217L16.7 218C33.3 219 66.7 221 100 224C133.3 227 166.7 231 200 228C233.3 225 266.7 215 300 223C333.3 231 366.7 257 400 273C433.3 289 466.7 295 500 283C533.3 271 566.7 241 600 235C633.3 229 666.7 247 700 267C733.3 287 766.7 309 800 308C833.3 307 866.7 283 883.3 271L900 259L900 227L883.3 229C866.7 231 833.3 235 800 234C766.7 233 733.3 227 700 211C666.7 195 633.3 169 600 169C566.7 169 533.3 195 500 206C466.7 217 433.3 213 400 197C366.7 181 333.3 153 300 150C266.7 147 233.3 169 200 171C166.7 173 133.3 155 100 148C66.7 141 33.3 145 16.7 147L0 149Z" fill="#494075"></path><path d="M0 391L16.7 380C33.3 369 66.7 347 100 357C133.3 367 166.7 409 200 400C233.3 391 266.7 331 300 317C333.3 303 366.7 335 400 370C433.3 405 466.7 443 500 459C533.3 475 566.7 469 600 469C633.3 469 666.7 475 700 473C733.3 471 766.7 461 800 440C833.3 419 866.7 387 883.3 371L900 355L900 257L883.3 269C866.7 281 833.3 305 800 306C766.7 307 733.3 285 700 265C666.7 245 633.3 227 600 233C566.7 239 533.3 269 500 281C466.7 293 433.3 287 400 271C366.7 255 333.3 229 300 221C266.7 213 233.3 223 200 226C166.7 229 133.3 225 100 222C66.7 219 33.3 217 16.7 216L0 215Z" fill="#3b3666"></path><path d="M0 547L16.7 545C33.3 543 66.7 539 100 538C133.3 537 166.7 539 200 540C233.3 541 266.7 541 300 544C333.3 547 366.7 553 400 553C433.3 553 466.7 547 500 542C533.3 537 566.7 533 600 534C633.3 535 666.7 541 700 550C733.3 559 766.7 571 800 564C833.3 557 866.7 531 883.3 518L900 505L900 353L883.3 369C866.7 385 833.3 417 800 438C766.7 459 733.3 469 700 471C666.7 473 633.3 467 600 467C566.7 467 533.3 473 500 457C466.7 441 433.3 403 400 368C366.7 333 333.3 301 300 315C266.7 329 233.3 389 200 398C166.7 407 133.3 365 100 355C66.7 345 33.3 367 16.7 378L0 389Z" fill="#1c1e43"></path><path d="M0 601L16.7 601C33.3 601 66.7 601 100 601C133.3 601 166.7 601 200 601C233.3 601 266.7 601 300 601C333.3 601 366.7 601 400 601C433.3 601 466.7 601 500 601C533.3 601 566.7 601 600 601C633.3 601 666.7 601 700 601C733.3 601 766.7 601 800 601C833.3 601 866.7 601 883.3 601L900 601L900 503L883.3 516C866.7 529 833.3 555 800 562C766.7 569 733.3 557 700 548C666.7 539 633.3 533 600 532C566.7 531 533.3 535 500 540C466.7 545 433.3 551 400 551C366.7 551 333.3 545 300 542C266.7 539 233.3 539 200 538C166.7 537 133.3 535 100 536C66.7 537 33.3 541 16.7 543L0 545Z" fill="#000022"></path></svg>